<svg id="Layer_1" data-name="Layer 1" xmlns="http://www.w3.org/2000/svg" viewBox="0 0 139 136"><defs><style>.cls-1{fill:#cecece;stroke:#fff;stroke-miterlimit:10;stroke-width:0.75px;}</style></defs><title>surepilot_socialmedia_Artboard 12</title><path class="cls-1" d="M109.8,73.78A39.42,39.42,0,1,0,36.37,93.7h0a39.44,39.44,0,0,0,16.14,15.22h0a39,39,0,0,0,17.87,4.28,39.42,39.42,0,0,0,35.09-21.44h0A39.55,39.55,0,0,0,109.8,73.78Zm-70,14A33.69,33.69,0,0,1,39.26,61l9.85,7.13a22.13,22.13,0,0,0-.74,5.68,21.83,21.83,0,0,0,1,6.54l-6.73,5.29Zm25.4,1.34h0a16.24,16.24,0,0,1-9.76-9,16,16,0,0,1-1.3-6.38,16.24,16.24,0,0,1,1-5.77h0a16.34,16.34,0,0,1,9.39-9.41,16.16,16.16,0,0,1,5.8-1.07A16.25,16.25,0,0,1,86.63,73.78a16.29,16.29,0,0,1-9.8,14.91h0A16.19,16.19,0,0,1,70.38,90,16,16,0,0,1,65.2,89.17Zm36-28.86A33.59,33.59,0,0,1,104,73.78,33.2,33.2,0,0,1,101.73,86L91.8,78.85a21.81,21.81,0,0,0-.21-11L100.3,61ZM70.38,40.13A33.77,33.77,0,0,1,83.3,42.7l-7.12,9.84a22.2,22.2,0,0,0-11.61,0L57,42.9A33.72,33.72,0,0,1,70.38,40.13Zm0,67.3a33.24,33.24,0,0,1-12.14-2.26l7.19-9.94a22.23,22.23,0,0,0,4.95.56,21.81,21.81,0,0,0,6.63-1l3.8,4.84,3.7,4.71A33.66,33.66,0,0,1,70.38,107.43Z"/></svg>