<svg id="Layer_1" data-name="Layer 1" xmlns="http://www.w3.org/2000/svg" viewBox="0 0 58.34 39.96"><defs><style>.cls-1{fill:#34424c;}.cls-2{fill:#fff;}</style></defs><title>backspace</title><path class="cls-1" d="M55.05,40H19.54a3.28,3.28,0,0,1-2.36-1L.93,22.23a3.28,3.28,0,0,1,0-4.54L16.56,1A3.29,3.29,0,0,1,19,0H55.05a3.29,3.29,0,0,1,3.29,3.29V36.67A3.29,3.29,0,0,1,55.05,40Z"/><path class="cls-2" d="M45.8,12.29,42.59,9.08a.81.81,0,0,0-1.15,0l-6,6a.81.81,0,0,1-1.15,0l-6-6a.81.81,0,0,0-1.15,0L24,12.29a.81.81,0,0,0,0,1.15l5.95,6a.82.82,0,0,1,0,1.16l-5.95,6a.81.81,0,0,0,0,1.15l3.21,3.21a.81.81,0,0,0,1.15,0l6-6a.81.81,0,0,1,1.15,0l6,6a.81.81,0,0,0,1.15,0l3.21-3.21a.81.81,0,0,0,0-1.15l-6-6a.84.84,0,0,1,0-1.16l6-6A.81.81,0,0,0,45.8,12.29Z"/></svg>