<svg id="Layer_1" data-name="Layer 1" xmlns="http://www.w3.org/2000/svg" viewBox="0 0 33.23 16"><defs><style>.cls-1{fill:#aaa;}</style></defs><title>playpause_disabled</title><path class="cls-1" d="M24.23,0H20.9a1,1,0,0,0-1,1V15a1,1,0,0,0,1,1h3.33a1,1,0,0,0,1-1V1A1,1,0,0,0,24.23,0Z"/><path class="cls-1" d="M32.23,0H28.9a1,1,0,0,0-1,1V15a1,1,0,0,0,1,1h3.33a1,1,0,0,0,1-1V1A1,1,0,0,0,32.23,0Z"/><path class="cls-1" d="M2.61.35C1.17-.47,0,.2,0,1.87V14.13c0,1.67,1.17,2.35,2.61,1.52L13.34,9.5c1.44-.83,1.44-2.17,0-3Z"/></svg>