<svg id="Layer_1" data-name="Layer 1" xmlns="http://www.w3.org/2000/svg" viewBox="0 0 416.82 419.31"><defs><style>.cls-1{fill:#fff;}.cls-2{fill:#eaeaea;}.cls-3{fill:#dbdbdb;}.cls-4{fill:#c9c9c9;}.cls-5{fill:#b5b5b5;}</style></defs><title>Artboard 12</title><circle class="cls-1" cx="208.41" cy="208.51" r="191.54"/><ellipse class="cls-2" cx="208.41" cy="209.66" rx="191.54" ry="192.69"/><path class="cls-3" d="M208.41,226.09A17.58,17.58,0,1,1,226,208.51,17.59,17.59,0,0,1,208.41,226.09Z"/><path class="cls-4" d="M208.41,191.05A17.46,17.46,0,1,1,191,208.51a17.48,17.48,0,0,1,17.46-17.46m0-.25a17.71,17.71,0,1,0,17.71,17.71,17.71,17.71,0,0,0-17.71-17.71Z"/><path class="cls-5" d="M207.77,17c105.79,0,191.54,86.27,191.54,192.69S313.56,402.34,207.77,402.34,16.23,316.07,16.23,209.66,102,17,207.77,17m0-10A200.35,200.35,0,0,0,65.24,66.36a203.27,203.27,0,0,0,0,286.6,201.65,201.65,0,0,0,344.07-143.3A202.77,202.77,0,0,0,286.24,22.91,199.26,199.26,0,0,0,207.77,7Z"/></svg>