<?xml version="1.0" encoding="utf-8"?>
<!-- Generator: Adobe Illustrator 23.0.3, SVG Export Plug-In . SVG Version: 6.00 Build 0)  -->
<svg version="1.1" id="Layer_1" xmlns="http://www.w3.org/2000/svg" xmlns:xlink="http://www.w3.org/1999/xlink" x="0px" y="0px"
	 viewBox="0 0 544.3 460.2" style="enable-background:new 0 0 544.3 460.2;" xml:space="preserve">
<style type="text/css">
	.st0{fill:#212222;}
	.st1{fill:#4888E5;}
	.st2{opacity:0.33;}
	.st3{fill:#73CC3A;}
	.st4{opacity:0.15;}
	.st5{fill:#3C3C3C;}
	.st6{fill:#2E2F2E;}
	.st7{fill:#141916;}
	.st8{fill:#0F1211;}
	.st9{opacity:0.25;enable-background:new    ;}
	.st10{fill:#EAEAEA;}
</style>
<path class="st0" d="M518.9,398H25c-4.6,0-8.3-3.7-8.3-8.3V28.3c0-4.6,3.7-8.3,8.3-8.3h493.9c4.6,0,8.3,3.7,8.3,8.3v361.5
	C527.1,394.3,523.4,398,518.9,398z"/>
<g>
	<g>
		
			<image style="overflow:visible;opacity:0.15;" width="122" height="69" xlink:href="F8427486.png"  transform="matrix(1 0 0 1 -352.6492 503.1363)">
		</image>
		<g>
			<path class="st1" d="M-257.3,556.6h-68.4c-6.4,0-11.5-5.1-11.5-11.5v-15.5c0-6.4,5.1-11.5,11.5-11.5h68.4
				c6.4,0,11.5,5.1,11.5,11.5v15.5C-245.8,551.5-251,556.6-257.3,556.6z"/>
		</g>
	</g>
	<text transform="matrix(1 0 0 1 -322.6346 545.1804)" style="fill:#FCFCFC; font-family:'SegoeUI'; font-size:21.4677px;">Up</text>
	<path class="st2" d="M-275.5,542.6c-0.8,1.4-0.1,2.6,1.5,2.6h12.2c1.7,0,2.3-1.2,1.5-2.6l-6.1-10.7c-0.8-1.4-2.2-1.4-3,0
		L-275.5,542.6z"/>
	<g>
		
			<image style="overflow:visible;opacity:0.15;" width="159" height="70" xlink:href="F8427487.png"  transform="matrix(1 0 0 1 -252.6492 502.1363)">
		</image>
		<g>
			<path class="st1" d="M-121,556.2h-104.4c-6.4,0-11.5-5.1-11.5-11.5v-15.5c0-6.4,5.1-11.5,11.5-11.5H-121
				c6.4,0,11.5,5.1,11.5,11.5v15.5C-109.5,551-114.7,556.2-121,556.2z"/>
		</g>
	</g>
	<text transform="matrix(1 0 0 1 -180.031 544.7146)" style="fill:#FCFCFC; font-family:'SegoeUI'; font-size:21.4491px;">Down</text>
	<path class="st2" d="M-206.4,532.4c0.8-1.4,0.1-2.6-1.5-2.6h-12.2c-1.7,0-2.3,1.2-1.5,2.6l6.1,10.7c0.8,1.4,2.2,1.4,3,0
		L-206.4,532.4z"/>
</g>
<image style="overflow:visible;" width="477" height="293" xlink:href="F8427480.jpg"  transform="matrix(1.0146 0 0 0.9816 859.4634 412.3328)">
</image>
<g>
	
		<image style="overflow:visible;opacity:0.15;" width="193" height="70" xlink:href="F8427482.png"  transform="matrix(1 0 0 1 -69.6492 502.1363)">
	</image>
	<g>
		<path class="st3" d="M96.6,556.1H-42.9c-6.4,0-11.5-5.1-11.5-11.5v-15.5c0-6.4,5.1-11.5,11.5-11.5H96.6c6.4,0,11.5,5.1,11.5,11.5
			v15.5C108.1,551,102.9,556.1,96.6,556.1z"/>
	</g>
</g>
<text transform="matrix(1 0 0 1 -41.3191 544.6902)" style="fill:#FCFCFC; font-family:'SegoeUI'; font-size:21.4524px;">Submit</text>
<path class="st4" d="M94.4,531.3c-0.6,0-0.9,0.4-0.9,0.9v1.1c0,1.4,0,2.1-0.2,2.5c-0.2,0.4-0.5,0.7-0.8,0.8
	c-0.4,0.2-1.1,0.2-2.5,0.2h-8.2l2.1-2.1c0.4-0.4,0.4-0.9,0-1.3c-0.4-0.4-0.9-0.4-1.3,0l-3.7,3.7c-0.1,0.1-0.2,0.2-0.2,0.3
	c-0.1,0.1-0.1,0.3-0.1,0.4c0,0.1,0,0.3,0.1,0.4c0,0.1,0.1,0.2,0.2,0.3l3.7,3.7c0.2,0.2,0.4,0.3,0.7,0.3s0.5-0.1,0.7-0.3
	c0.4-0.4,0.4-0.9,0-1.3l-2.1-2.1H90c1.7,0,2.6,0,3.4-0.4c0.7-0.4,1.3-0.9,1.6-1.6c0.5-0.8,0.5-1.8,0.5-3.4v-1.1
	C95.4,531.7,95,531.3,94.4,531.3z"/>
<title>imgArtboard 7_1</title>
<g>
	<path class="st5" d="M502.2,313.6H42.1c-2.7,0-4.9-2.2-4.9-4.9V45.1c0-2.7,2.2-4.9,4.9-4.9h460.1c2.7,0,4.9,2.2,4.9,4.9v263.5
		C507,311.4,504.8,313.6,502.2,313.6z"/>
	<path class="st6" d="M502.2,316.6H42.1c-2.7,0-4.9-2.2-4.9-4.9V48.2c0-2.7,2.2-4.9,4.9-4.9h460.1c2.7,0,4.9,2.2,4.9,4.9v263.5
		C507,314.4,504.8,316.6,502.2,316.6z"/>
	<path class="st7" d="M492.1,57.3H52.2c-1.1,0-2,0.9-2,2v241.4c0,1.1,0.9,2,2,2h439.9c1.1,0,2-0.9,2-2V59.3
		C494.1,58.2,493.2,57.3,492.1,57.3z"/>
	<path class="st8" d="M486.4,59.6H57.9c-2.8,0-5.1,2.3-5.1,5.1v228.5c0,2.8,2.3,5.1,5.1,5.1h428.5c2.8,0,5.1-2.3,5.1-5.1V64.7
		C491.5,61.9,489.2,59.6,486.4,59.6z"/>
</g>
<g>
	<g class="st9">
		<path class="st10" d="M97,167.6h3.5v18.5H97V167.6z M98.6,175.3h10.8v3.4H98.6V175.3z M107.1,167.6h3.5v18.5h-3.5V167.6z"/>
		<path class="st10" d="M118.2,186.3c0,0-0.5-0.2-1.4-0.7c-0.9-0.5-1.6-1.1-2.1-2c-0.5-0.9-0.7-2-0.7-3.2v-1.5
			c0-1.3,0.2-2.4,0.7-3.3c0.5-0.9,1.1-1.6,2-2.1c0.9-0.5,1.9-0.7,3.2-0.7c1.2,0,2.1,0.3,3,0.9c0.8,0.6,1.5,1.4,1.9,2.5
			s0.6,2.4,0.6,4v0.9h-9v-2.4h5.9l0-0.3c-0.1-0.8-0.3-1.4-0.7-1.8c-0.4-0.4-0.9-0.6-1.5-0.6c-0.8,0-1.5,0.3-2,0.8
			c-0.5,0.5-0.7,1.2-0.7,2.1v1.7c0,0.9,0.3,1.6,0.8,2.1c0.5,0.5,1.2,0.7,2.1,0.7c0.5,0,0.9-0.1,1.4-0.2c0.5-0.2,0.9-0.4,1.2-0.7
			l2.3,2c-0.7,0.6-1.5,1.1-2.3,1.5c-0.9,0.3-1.7,0.5-2.6,0.5C118.8,186.3,118.2,186.3,118.2,186.3z"/>
		<path class="st10" d="M128.8,185.3c-0.7-0.7-1.1-1.7-1.1-3.1c0-1.3,0.4-2.3,1.2-2.9s2-1,3.5-1h3.3l0.2,2.7h-3.5
			c-0.5,0-0.9,0.1-1.2,0.3c-0.3,0.2-0.4,0.5-0.4,0.9c0,0.4,0.2,0.8,0.5,1s0.8,0.3,1.5,0.3c0.9,0,1.6-0.1,2.1-0.3
			c0.5-0.2,0.7-0.5,0.7-1l0.3,1.9c-0.1,0.5-0.3,0.9-0.7,1.2c-0.4,0.3-0.9,0.6-1.5,0.7c-0.6,0.2-1.2,0.2-1.8,0.2
			C130.6,186.3,129.5,186,128.8,185.3z M135.7,177.7c0-0.6-0.2-1.1-0.6-1.4c-0.4-0.3-1-0.5-1.7-0.5c-0.5,0-1,0.1-1.5,0.2
			c-0.5,0.2-0.9,0.4-1.3,0.7l-2.2-2.1c0.5-0.6,1.2-1.1,2.1-1.4c0.9-0.3,1.8-0.5,2.9-0.5c1.2,0,2.1,0.2,3,0.6
			c0.8,0.4,1.4,0.9,1.9,1.7c0.4,0.7,0.6,1.6,0.6,2.7v8.5h-3.2V177.7z"/>
		<path class="st10" d="M144,185.6c-0.7-0.5-1.2-1.1-1.5-2c-0.3-0.9-0.5-1.9-0.5-3.1v-2.1c0-1.2,0.2-2.3,0.5-3.1
			c0.3-0.9,0.9-1.5,1.5-2c0.7-0.5,1.5-0.7,2.4-0.7c0.7,0,1.3,0.2,1.9,0.6c0.6,0.4,1.1,1,1.4,1.8l-0.3,2.9c0-0.5-0.1-0.8-0.2-1.1
			c-0.2-0.3-0.4-0.6-0.7-0.7c-0.3-0.2-0.6-0.2-1.1-0.2c-0.7,0-1.2,0.2-1.5,0.7c-0.4,0.4-0.5,1.1-0.5,1.9v2.1c0,0.8,0.2,1.4,0.5,1.8
			c0.4,0.4,0.9,0.6,1.5,0.6c0.4,0,0.8-0.1,1.1-0.2c0.3-0.2,0.5-0.4,0.7-0.7s0.2-0.7,0.2-1.1l0.2,3c-0.3,0.7-0.7,1.3-1.2,1.7
			s-1.2,0.6-2,0.6C145.4,186.3,144.6,186.1,144,185.6z M149.4,167.6h3.5v18.5h-3.5V167.6z"/>
		<path class="st10" d="M156.2,167.6h3.5v3.5h-3.5V167.6z M156.2,172.9h3.5v13.2h-3.5V172.9z"/>
		<path class="st10" d="M162.9,172.9h3.5v13.2h-3.5V172.9z M170.6,178.1c0-0.6-0.2-1.1-0.6-1.5c-0.4-0.4-0.9-0.5-1.6-0.5
			c-0.6,0-1.1,0.2-1.5,0.5s-0.5,0.9-0.5,1.5l-0.3-2.9c0.4-0.8,0.9-1.5,1.4-1.9s1.3-0.6,2.1-0.6c1.4,0,2.5,0.5,3.2,1.4
			c0.8,0.9,1.1,2.3,1.1,4v8h-3.5V178.1z"/>
		<path class="st10" d="M179.1,185.6c-0.7-0.5-1.2-1.1-1.5-2c-0.3-0.9-0.5-1.9-0.5-3.1v-2.1c0-1.2,0.2-2.3,0.5-3.1
			c0.3-0.9,0.9-1.5,1.5-2c0.7-0.5,1.5-0.7,2.4-0.7c0.7,0,1.3,0.2,1.9,0.6c0.6,0.4,1.1,1,1.4,1.8l-0.3,2.9c0-0.5-0.1-0.8-0.2-1.1
			c-0.2-0.3-0.4-0.6-0.7-0.7c-0.3-0.2-0.6-0.2-1.1-0.2c-0.7,0-1.2,0.2-1.5,0.7c-0.4,0.4-0.5,1.1-0.5,1.9v2.1c0,0.8,0.2,1.4,0.5,1.8
			c0.4,0.4,0.9,0.6,1.5,0.6c0.4,0,0.8-0.1,1.1-0.2c0.3-0.2,0.5-0.4,0.7-0.7s0.2-0.7,0.2-1.1l0.2,3c-0.3,0.7-0.7,1.3-1.2,1.7
			s-1.2,0.6-2,0.6C180.6,186.3,179.8,186.1,179.1,185.6z M180.6,191.5c0,0-0.4-0.2-1.2-0.6c-0.8-0.4-1.5-0.9-1.9-1.6l2.3-2.2
			c0.3,0.3,0.7,0.6,1.1,0.7s0.8,0.3,1.3,0.3c0.7,0,1.3-0.2,1.8-0.6s0.7-1,0.7-1.7v-13.1h3.5v12.8c0,1.2-0.2,2.3-0.7,3.1
			s-1.1,1.5-2,2c-0.9,0.4-2,0.7-3.2,0.7C181.1,191.5,180.6,191.5,180.6,191.5z"/>
	</g>
</g>
<g>
	<g class="st9">
		<path class="st10" d="M101.5,262.3c0,0-0.4-0.1-1.3-0.3c-0.8-0.2-1.6-0.4-2.4-0.8c-0.7-0.3-1.4-0.8-2-1.2l1.6-2.9
			c0.7,0.6,1.5,1,2.5,1.4s1.9,0.5,2.9,0.5c1.1,0,2-0.2,2.6-0.6c0.6-0.4,0.9-0.9,0.9-1.6v0c0-0.5-0.1-0.9-0.4-1.2s-0.6-0.5-1.1-0.6
			s-1-0.3-1.7-0.4c0,0,0,0-0.1,0c0,0,0,0-0.1,0l-0.3,0c-1.2-0.2-2.3-0.4-3.1-0.7s-1.5-0.8-2.1-1.5c-0.6-0.7-0.9-1.8-0.9-3.1v0
			c0-1.2,0.3-2.2,0.8-3.1c0.5-0.8,1.3-1.5,2.3-1.9c1-0.4,2.3-0.7,3.7-0.7c0.7,0,1.3,0.1,2,0.2c0.7,0.2,1.4,0.4,2,0.7
			c0.7,0.3,1.3,0.6,1.9,1l-1.5,3c-0.7-0.5-1.5-0.9-2.2-1.1c-0.8-0.3-1.5-0.4-2.2-0.4c-1.1,0-1.9,0.2-2.5,0.5s-0.9,0.8-0.9,1.5v0
			c0,0.5,0.2,1,0.5,1.3c0.3,0.3,0.7,0.5,1.1,0.7s1.1,0.3,1.9,0.5c0,0,0.1,0,0.1,0c0,0,0.1,0,0.1,0c0.1,0,0.1,0,0.1,0s0.1,0,0.1,0
			c1.2,0.2,2.2,0.5,2.9,0.8s1.4,0.9,2,1.6c0.5,0.7,0.8,1.7,0.8,3v0c0,1.2-0.3,2.2-0.8,3c-0.6,0.8-1.4,1.5-2.4,1.9
			c-1.1,0.4-2.3,0.7-3.8,0.7C101.9,262.3,101.5,262.3,101.5,262.3z"/>
		<path class="st10" d="M112.8,248.9h3.5v18.6h-3.5V248.9z M117.3,261.7c-0.6-0.4-1-1-1.2-1.7l0.2-3c0,0.4,0.1,0.8,0.2,1.1
			s0.4,0.5,0.7,0.7c0.3,0.2,0.6,0.2,1.1,0.2c0.7,0,1.2-0.2,1.5-0.6c0.4-0.4,0.5-1,0.5-1.8v-2.1c0-0.8-0.2-1.4-0.5-1.9
			c-0.4-0.4-0.9-0.7-1.5-0.7c-0.4,0-0.8,0.1-1.1,0.2c-0.3,0.2-0.5,0.4-0.7,0.7c-0.2,0.3-0.2,0.7-0.2,1.1l-0.3-2.9
			c0.4-0.8,0.8-1.4,1.4-1.8c0.6-0.4,1.2-0.6,1.9-0.6c0.9,0,1.7,0.2,2.4,0.7c0.7,0.5,1.2,1.1,1.5,2c0.3,0.9,0.5,1.9,0.5,3.1v2.1
			c0,1.2-0.2,2.2-0.5,3.1c-0.3,0.9-0.9,1.5-1.5,2c-0.7,0.5-1.5,0.7-2.4,0.7C118.6,262.3,117.9,262.1,117.3,261.7z"/>
		<path class="st10" d="M130.7,262.3c0,0-0.5-0.2-1.4-0.7c-0.9-0.5-1.6-1.1-2.1-2c-0.5-0.9-0.7-2-0.7-3.2v-1.5
			c0-1.3,0.2-2.4,0.7-3.3c0.5-0.9,1.1-1.6,2-2.1c0.9-0.5,1.9-0.7,3.2-0.7c1.2,0,2.1,0.3,3,0.9c0.8,0.6,1.5,1.4,1.9,2.5
			s0.6,2.4,0.6,4v0.9h-9v-2.4h5.9l0-0.3c-0.1-0.8-0.3-1.4-0.7-1.8c-0.4-0.4-0.9-0.6-1.5-0.6c-0.8,0-1.5,0.3-2,0.8
			c-0.5,0.5-0.7,1.2-0.7,2.1v1.7c0,0.9,0.3,1.6,0.8,2.1c0.5,0.5,1.2,0.7,2.1,0.7c0.5,0,0.9-0.1,1.4-0.2c0.5-0.2,0.9-0.4,1.2-0.7
			l2.3,2c-0.7,0.6-1.5,1.1-2.3,1.5c-0.9,0.3-1.7,0.5-2.6,0.5C131.4,262.3,130.7,262.3,130.7,262.3z"/>
		<path class="st10" d="M144.7,262.3c0,0-0.5-0.2-1.4-0.7c-0.9-0.5-1.6-1.1-2.1-2c-0.5-0.9-0.7-2-0.7-3.2v-1.5
			c0-1.3,0.2-2.4,0.7-3.3c0.5-0.9,1.1-1.6,2-2.1c0.9-0.5,1.9-0.7,3.2-0.7c1.2,0,2.1,0.3,3,0.9c0.8,0.6,1.5,1.4,1.9,2.5
			s0.6,2.4,0.6,4v0.9h-9v-2.4h5.9l0-0.3c-0.1-0.8-0.3-1.4-0.7-1.8c-0.4-0.4-0.9-0.6-1.5-0.6c-0.8,0-1.5,0.3-2,0.8
			c-0.5,0.5-0.7,1.2-0.7,2.1v1.7c0,0.9,0.3,1.6,0.8,2.1c0.5,0.5,1.2,0.7,2.1,0.7c0.5,0,0.9-0.1,1.4-0.2c0.5-0.2,0.9-0.4,1.2-0.7
			l2.3,2c-0.7,0.6-1.5,1.1-2.3,1.5c-0.9,0.3-1.7,0.5-2.6,0.5C145.4,262.3,144.7,262.3,144.7,262.3z"/>
		<path class="st10" d="M156.6,261.6c-0.7-0.5-1.2-1.1-1.5-2c-0.3-0.9-0.5-1.9-0.5-3.1v-2.1c0-1.2,0.2-2.3,0.5-3.1
			c0.3-0.9,0.9-1.5,1.5-2c0.7-0.5,1.5-0.7,2.4-0.7c0.7,0,1.3,0.2,1.9,0.6c0.6,0.4,1.1,1,1.4,1.8l-0.3,2.9c0-0.5-0.1-0.8-0.2-1.1
			c-0.2-0.3-0.4-0.6-0.7-0.7c-0.3-0.2-0.6-0.2-1.1-0.2c-0.7,0-1.2,0.2-1.5,0.7c-0.4,0.4-0.5,1.1-0.5,1.9v2.1c0,0.8,0.2,1.4,0.5,1.8
			c0.4,0.4,0.9,0.6,1.5,0.6c0.4,0,0.8-0.1,1.1-0.2c0.3-0.2,0.5-0.4,0.7-0.7s0.2-0.7,0.2-1.1l0.2,3c-0.3,0.7-0.7,1.3-1.2,1.7
			s-1.2,0.6-2,0.6C158.1,262.3,157.3,262.1,156.6,261.6z M162.1,243.6h3.5v18.5h-3.5V243.6z"/>
	</g>
</g>
<g>
	<g class="st9">
		<path class="st10" d="M102.3,91.6h2.2l7.1,18.5h-3.8l-4.4-12.7l-4.4,12.7h-3.8L102.3,91.6z M98.6,103.8h9.7v3.4h-9.7V103.8z"/>
		<path class="st10" d="M117.1,105.8c0,0.3,0.1,0.6,0.3,0.7s0.4,0.3,0.8,0.3h0.6v3.4H117c-1.1,0-1.9-0.3-2.5-0.9s-0.9-1.5-0.9-2.6
			v-15h3.5V105.8z"/>
		<path class="st10" d="M120.1,96.9h6.5v3h-6.5V96.9z M122.3,109.3c-0.5-0.6-0.8-1.5-0.8-2.6V93.1h3.5v12.8c0,0.3,0.1,0.6,0.2,0.7
			s0.3,0.3,0.6,0.3h0.9v3.4h-1.8C123.7,110.2,122.9,109.9,122.3,109.3z"/>
		<path class="st10" d="M129.5,91.6h3.5v3.5h-3.5V91.6z M129.5,96.9h3.5v13.2h-3.5V96.9z"/>
		<path class="st10" d="M135.2,96.9h6.5v3h-6.5V96.9z M137.4,109.3c-0.5-0.6-0.8-1.5-0.8-2.6V93.1h3.5v12.8c0,0.3,0.1,0.6,0.2,0.7
			s0.3,0.3,0.6,0.3h0.9v3.4h-1.8C138.8,110.2,137.9,109.9,137.4,109.3z"/>
		<path class="st10" d="M148.2,104.9c0,0.6,0.2,1.1,0.5,1.5c0.4,0.4,0.9,0.5,1.5,0.5c0.7,0,1.2-0.2,1.5-0.5c0.4-0.4,0.5-0.9,0.5-1.5
			l0.2,2.9c-0.2,0.7-0.7,1.3-1.2,1.8c-0.6,0.5-1.3,0.7-2.1,0.7c-1.4,0-2.5-0.5-3.3-1.4c-0.8-0.9-1.2-2.2-1.2-3.9v-8.2h3.5V104.9z
			 M152.3,96.9h3.5v13.2h-3.5V96.9z"/>
		<path class="st10" d="M160.9,109.6c-0.7-0.5-1.2-1.1-1.5-2c-0.3-0.9-0.5-1.9-0.5-3.1v-2.1c0-1.2,0.2-2.3,0.5-3.1
			c0.3-0.9,0.9-1.5,1.5-2c0.7-0.5,1.5-0.7,2.4-0.7c0.7,0,1.3,0.2,1.9,0.6c0.6,0.4,1.1,1,1.4,1.8l-0.3,2.9c0-0.5-0.1-0.8-0.2-1.1
			c-0.2-0.3-0.4-0.6-0.7-0.7c-0.3-0.2-0.6-0.2-1.1-0.2c-0.7,0-1.2,0.2-1.5,0.7c-0.4,0.4-0.5,1.1-0.5,1.9v2.1c0,0.8,0.2,1.4,0.5,1.8
			c0.4,0.4,0.9,0.6,1.5,0.6c0.4,0,0.8-0.1,1.1-0.2c0.3-0.2,0.5-0.4,0.7-0.7s0.2-0.7,0.2-1.1l0.2,3c-0.3,0.7-0.7,1.3-1.2,1.7
			s-1.2,0.6-2,0.6C162.4,110.3,161.6,110.1,160.9,109.6z M166.4,91.6h3.5v18.5h-3.5V91.6z"/>
		<path class="st10" d="M177.1,110.3c0,0-0.5-0.2-1.4-0.7c-0.9-0.5-1.6-1.1-2.1-2c-0.5-0.9-0.7-2-0.7-3.2v-1.5
			c0-1.3,0.2-2.4,0.7-3.3c0.5-0.9,1.1-1.6,2-2.1c0.9-0.5,1.9-0.7,3.2-0.7c1.2,0,2.1,0.3,3,0.9c0.8,0.6,1.5,1.4,1.9,2.5
			s0.6,2.4,0.6,4v0.9h-9v-2.4h5.9l0-0.3c-0.1-0.8-0.3-1.4-0.7-1.8c-0.4-0.4-0.9-0.6-1.5-0.6c-0.8,0-1.5,0.3-2,0.8
			c-0.5,0.5-0.7,1.2-0.7,2.1v1.7c0,0.9,0.3,1.6,0.8,2.1c0.5,0.5,1.2,0.7,2.1,0.7c0.5,0,0.9-0.1,1.4-0.2c0.5-0.2,0.9-0.4,1.2-0.7
			l2.3,2c-0.7,0.6-1.5,1.1-2.3,1.5c-0.9,0.3-1.7,0.5-2.6,0.5C177.7,110.3,177.1,110.3,177.1,110.3z"/>
	</g>
</g>
</svg>
