<?xml version="1.0" encoding="utf-8"?>
<!-- Generator: Adobe Illustrator 23.0.3, SVG Export Plug-In . SVG Version: 6.00 Build 0)  -->
<svg version="1.1" id="Layer_1" xmlns="http://www.w3.org/2000/svg" xmlns:xlink="http://www.w3.org/1999/xlink" x="0px" y="0px"
	 viewBox="0 0 433.2 460.2" style="enable-background:new 0 0 433.2 460.2;" xml:space="preserve">
<style type="text/css">
	.st0{fill:#E8E8E8;stroke:#E0E0E0;stroke-miterlimit:10;}
	.st1{enable-background:new    ;}
	.st2{fill:#848484;}
	.st3{opacity:0.15;fill:#E8E8E8;stroke:#E0E0E0;stroke-miterlimit:10;enable-background:new    ;}
	.st4{fill:#FFFFFF;}
</style>
<line class="st0" x1="61.9" y1="79.1" x2="143.6" y2="76.3"/>
<path class="st0" d="M24,18.6h384.4c3.3,0,6,2.7,6,6v118.3c0,3.3-2.7,6-6,6H24c-3.3,0-6-2.7-6-6V24.6C18,21.3,20.7,18.6,24,18.6z"/>
<g class="st1">
	<g>
		<path class="st2" d="M51.9,54.1l-1-3.3h-5l-1,3.3h-3.2l4.9-13.9h3.6L55,54.1H51.9z M50.2,48.3c-0.9-3-1.5-4.7-1.6-5.1
			c-0.1-0.4-0.2-0.7-0.3-0.9c-0.2,0.8-0.8,2.8-1.8,6H50.2z"/>
		<path class="st2" d="M59.4,54.1h-2.9V39.4h2.9V54.1z"/>
		<path class="st2" d="M66.9,52c0.5,0,1.1-0.1,1.8-0.3v2.2c-0.7,0.3-1.6,0.5-2.7,0.5c-1.2,0-2-0.3-2.5-0.9s-0.8-1.5-0.8-2.6v-5.1
			h-1.4v-1.2l1.6-1l0.8-2.2h1.8v2.3h3v2.2h-3v5.1c0,0.4,0.1,0.7,0.3,0.9C66.3,51.9,66.6,52,66.9,52z"/>
		<path class="st2" d="M70.8,40.8c0-0.9,0.5-1.4,1.6-1.4s1.6,0.5,1.6,1.4c0,0.4-0.1,0.8-0.4,1c-0.3,0.2-0.7,0.4-1.2,0.4
			C71.3,42.2,70.8,41.7,70.8,40.8z M73.8,54.1h-2.9V43.5h2.9V54.1z"/>
		<path class="st2" d="M81.3,52c0.5,0,1.1-0.1,1.8-0.3v2.2c-0.7,0.3-1.6,0.5-2.7,0.5c-1.2,0-2-0.3-2.5-0.9s-0.8-1.5-0.8-2.6v-5.1
			h-1.4v-1.2l1.6-1l0.8-2.2H80v2.3h3v2.2h-3v5.1c0,0.4,0.1,0.7,0.3,0.9C80.6,51.9,80.9,52,81.3,52z"/>
		<path class="st2" d="M92.7,54.1l-0.4-1.4h-0.2c-0.3,0.5-0.7,0.9-1.3,1.1s-1.2,0.4-1.9,0.4c-1.2,0-2.2-0.3-2.8-1
			c-0.6-0.7-0.9-1.6-0.9-2.9v-6.9h2.9v6.2c0,0.8,0.1,1.3,0.4,1.7s0.7,0.6,1.3,0.6c0.8,0,1.4-0.3,1.8-0.8c0.4-0.5,0.5-1.4,0.5-2.7v-5
			H95v10.6H92.7z"/>
		<path class="st2" d="M101.3,54.3c-1.2,0-2.2-0.5-2.9-1.4c-0.7-1-1.1-2.3-1.1-4c0-1.7,0.4-3.1,1.1-4.1c0.7-1,1.7-1.5,3-1.5
			c1.3,0,2.3,0.5,3.1,1.6h0.1c-0.1-0.8-0.2-1.5-0.2-2.1v-3.4h2.9v14.7H105l-0.6-1.4h-0.1C103.7,53.8,102.7,54.3,101.3,54.3z
			 M102.4,52c0.7,0,1.3-0.2,1.6-0.6c0.3-0.4,0.5-1.2,0.6-2.2v-0.3c0-1.1-0.2-2-0.5-2.4s-0.9-0.7-1.7-0.7c-0.6,0-1.1,0.3-1.5,0.8
			c-0.4,0.5-0.5,1.3-0.5,2.4s0.2,1.8,0.5,2.3C101.2,51.7,101.7,52,102.4,52z"/>
		<path class="st2" d="M115.1,54.3c-1.7,0-3-0.5-4-1.4c-1-0.9-1.4-2.3-1.4-4c0-1.8,0.4-3.1,1.3-4.1c0.9-1,2.1-1.5,3.7-1.5
			c1.5,0,2.7,0.4,3.5,1.3s1.3,2,1.3,3.5v1.4h-6.8c0,0.8,0.3,1.5,0.7,1.9s1.1,0.7,1.9,0.7c0.6,0,1.2-0.1,1.8-0.2
			c0.6-0.1,1.2-0.3,1.8-0.6v2.2c-0.5,0.3-1,0.4-1.6,0.6S115.9,54.3,115.1,54.3z M114.7,45.4c-0.6,0-1.1,0.2-1.4,0.6
			c-0.3,0.4-0.5,0.9-0.6,1.7h4.1c0-0.7-0.2-1.3-0.6-1.7S115.3,45.4,114.7,45.4z"/>
	</g>
</g>
<line class="st3" x1="40.9" y1="70.4" x2="391.3" y2="70.4"/>
<line class="st0" x1="61.8" y1="224.9" x2="143.5" y2="222.1"/>
<path class="st0" d="M23.9,164.4h384.4c3.3,0,6,2.7,6,6v118.3c0,3.3-2.7,6-6,6H23.9c-3.3,0-6-2.7-6-6V170.4
	C17.9,167.1,20.6,164.4,23.9,164.4z"/>
<g class="st1">
	<g>
		<path class="st2" d="M54.7,199.9h-2.9v-6h-5.5v6h-2.9V186h2.9v5.4h5.5V186h2.9V199.9z"/>
		<path class="st2" d="M62.7,200.1c-1.7,0-3-0.5-4-1.4c-1-0.9-1.4-2.3-1.4-4c0-1.8,0.4-3.1,1.3-4.1c0.9-1,2.1-1.5,3.7-1.5
			c1.5,0,2.7,0.4,3.5,1.3s1.3,2,1.3,3.5v1.4h-6.8c0,0.8,0.3,1.5,0.7,1.9s1.1,0.7,1.9,0.7c0.6,0,1.2-0.1,1.8-0.2
			c0.6-0.1,1.2-0.3,1.8-0.6v2.2c-0.5,0.3-1,0.4-1.6,0.6S63.5,200.1,62.7,200.1z M62.3,191.1c-0.6,0-1.1,0.2-1.4,0.6
			c-0.3,0.4-0.5,0.9-0.6,1.7h4.1c0-0.7-0.2-1.3-0.6-1.7S62.9,191.1,62.3,191.1z"/>
		<path class="st2" d="M76.1,199.9l-0.6-1.4h-0.1c-0.5,0.6-1,1-1.5,1.3c-0.5,0.2-1.2,0.4-2,0.4c-1,0-1.8-0.3-2.4-0.9
			c-0.6-0.6-0.9-1.4-0.9-2.5c0-1.1,0.4-2,1.2-2.5s2-0.8,3.6-0.9l1.8-0.1v-0.5c0-1.1-0.5-1.6-1.6-1.6c-0.8,0-1.8,0.3-3,0.8l-1-2
			c1.2-0.6,2.6-1,4.1-1c1.4,0,2.5,0.3,3.3,0.9s1.1,1.6,1.1,2.8v7.1H76.1z M75.3,195l-1.1,0c-0.8,0-1.5,0.2-1.9,0.5
			c-0.4,0.3-0.6,0.7-0.6,1.3c0,0.8,0.5,1.2,1.4,1.2c0.7,0,1.2-0.2,1.6-0.6c0.4-0.4,0.6-0.9,0.6-1.5V195z"/>
		<path class="st2" d="M84.5,200.1c-1.2,0-2.2-0.5-2.9-1.4c-0.7-1-1.1-2.3-1.1-4c0-1.7,0.4-3.1,1.1-4.1c0.7-1,1.7-1.5,3-1.5
			c1.3,0,2.3,0.5,3.1,1.6h0.1c-0.1-0.8-0.2-1.5-0.2-2.1v-3.4h2.9v14.7h-2.2l-0.6-1.4h-0.1C86.8,199.5,85.8,200.1,84.5,200.1z
			 M85.5,197.8c0.7,0,1.3-0.2,1.6-0.6c0.3-0.4,0.5-1.2,0.6-2.2v-0.3c0-1.1-0.2-2-0.5-2.4s-0.9-0.7-1.7-0.7c-0.6,0-1.1,0.3-1.5,0.8
			c-0.4,0.5-0.5,1.3-0.5,2.4s0.2,1.8,0.5,2.3C84.3,197.5,84.8,197.8,85.5,197.8z"/>
		<path class="st2" d="M93.3,186.5c0-0.9,0.5-1.4,1.6-1.4s1.6,0.5,1.6,1.4c0,0.4-0.1,0.8-0.4,1c-0.3,0.2-0.7,0.4-1.2,0.4
			C93.8,188,93.3,187.5,93.3,186.5z M96.3,199.9h-2.9v-10.6h2.9V199.9z"/>
		<path class="st2" d="M109.1,199.9h-2.9v-6.2c0-0.8-0.1-1.3-0.4-1.7c-0.3-0.4-0.7-0.6-1.3-0.6c-0.8,0-1.4,0.3-1.8,0.8
			s-0.5,1.4-0.5,2.7v5h-2.9v-10.6h2.2l0.4,1.4h0.2c0.3-0.5,0.8-0.9,1.3-1.2c0.6-0.3,1.2-0.4,1.9-0.4c1.2,0,2.2,0.3,2.8,1
			c0.6,0.7,1,1.6,1,2.9V199.9z"/>
		<path class="st2" d="M121.3,189.3v1.5l-1.7,0.4c0.3,0.5,0.5,1,0.5,1.6c0,1.1-0.4,2-1.2,2.7c-0.8,0.6-1.9,1-3.3,1l-0.5,0l-0.4,0
			c-0.3,0.2-0.4,0.5-0.4,0.8c0,0.4,0.5,0.6,1.6,0.6h1.8c1.2,0,2,0.3,2.7,0.7s0.9,1.2,0.9,2.2c0,1.2-0.5,2.2-1.5,2.9
			c-1,0.7-2.5,1-4.4,1c-1.5,0-2.6-0.3-3.4-0.8s-1.2-1.2-1.2-2.2c0-0.6,0.2-1.2,0.6-1.6c0.4-0.4,1-0.7,1.8-0.9
			c-0.3-0.1-0.6-0.3-0.8-0.6c-0.2-0.3-0.3-0.6-0.3-0.9c0-0.4,0.1-0.7,0.4-1c0.2-0.3,0.6-0.5,1-0.8c-0.6-0.2-1-0.6-1.3-1.2
			c-0.3-0.5-0.5-1.2-0.5-1.9c0-1.2,0.4-2,1.1-2.7c0.8-0.6,1.8-0.9,3.2-0.9c0.3,0,0.6,0,1.1,0.1s0.7,0.1,0.8,0.1H121.3z M113.1,201.4
			c0,0.4,0.2,0.7,0.6,0.9c0.4,0.2,0.9,0.3,1.6,0.3c1,0,1.8-0.1,2.4-0.4s0.9-0.7,0.9-1.2c0-0.4-0.2-0.7-0.5-0.8
			c-0.3-0.2-0.9-0.2-1.6-0.2H115c-0.5,0-1,0.1-1.3,0.4C113.3,200.6,113.1,201,113.1,201.4z M114.1,192.7c0,0.6,0.1,1,0.4,1.4
			c0.3,0.3,0.7,0.5,1.2,0.5c0.5,0,0.9-0.2,1.2-0.5c0.3-0.3,0.4-0.8,0.4-1.4c0-1.3-0.5-1.9-1.6-1.9
			C114.7,190.8,114.1,191.5,114.1,192.7z"/>
	</g>
</g>
<line class="st3" x1="40.8" y1="216.2" x2="391.2" y2="216.2"/>
<line class="st0" x1="61.7" y1="370.7" x2="143.4" y2="367.9"/>
<path class="st0" d="M23.8,310.2h384.4c3.3,0,6,2.7,6,6v118.3c0,3.3-2.7,6-6,6H23.8c-3.3,0-6-2.7-6-6V316.2
	C17.8,312.9,20.5,310.2,23.8,310.2z"/>
<g class="st1">
	<g>
		<path class="st2" d="M51.4,341.8c0,1.3-0.5,2.2-1.4,3s-2.2,1.1-3.8,1.1c-1.5,0-2.8-0.3-3.9-0.8v-2.7c0.9,0.4,1.7,0.7,2.4,0.9
			s1.2,0.3,1.8,0.3c0.6,0,1.1-0.1,1.5-0.4c0.3-0.2,0.5-0.6,0.5-1.1c0-0.3-0.1-0.5-0.2-0.7c-0.2-0.2-0.4-0.4-0.7-0.6
			c-0.3-0.2-0.9-0.5-1.8-0.9c-0.8-0.4-1.5-0.8-1.9-1.1c-0.4-0.4-0.8-0.8-1-1.3c-0.3-0.5-0.4-1.1-0.4-1.7c0-1.2,0.4-2.2,1.2-2.9
			c0.8-0.7,2-1.1,3.4-1.1c0.7,0,1.4,0.1,2.1,0.3c0.7,0.2,1.3,0.4,2.1,0.7l-0.9,2.3c-0.7-0.3-1.3-0.5-1.8-0.6c-0.5-0.1-1-0.2-1.4-0.2
			c-0.6,0-1,0.1-1.3,0.4s-0.4,0.6-0.4,1c0,0.3,0.1,0.5,0.2,0.7c0.1,0.2,0.3,0.4,0.6,0.6c0.3,0.2,0.9,0.5,1.9,1
			c1.3,0.6,2.2,1.2,2.7,1.9S51.4,340.9,51.4,341.8z"/>
		<path class="st2" d="M59.5,345.8c-1.2,0-2.2-0.5-2.9-1.4h-0.2c0.1,0.9,0.2,1.4,0.2,1.5v4.3h-2.9v-15.3H56l0.4,1.4h0.1
			c0.7-1,1.7-1.6,3-1.6c1.3,0,2.2,0.5,2.9,1.4c0.7,1,1.1,2.3,1.1,4c0,1.1-0.2,2.1-0.5,2.9s-0.8,1.5-1.4,1.9
			C61,345.6,60.3,345.8,59.5,345.8z M58.6,337.2c-0.7,0-1.2,0.2-1.6,0.7c-0.3,0.4-0.5,1.2-0.5,2.2v0.3c0,1.1,0.2,2,0.5,2.4
			c0.3,0.5,0.9,0.7,1.6,0.7c1.3,0,1.9-1.1,1.9-3.2c0-1-0.2-1.8-0.5-2.3C59.8,337.4,59.3,337.2,58.6,337.2z"/>
		<path class="st2" d="M70.8,345.8c-1.7,0-3-0.5-4-1.4c-1-0.9-1.4-2.3-1.4-4c0-1.8,0.4-3.1,1.3-4.1c0.9-1,2.1-1.5,3.7-1.5
			c1.5,0,2.7,0.4,3.5,1.3s1.3,2,1.3,3.5v1.4h-6.8c0,0.8,0.3,1.5,0.7,1.9s1.1,0.7,1.9,0.7c0.6,0,1.2-0.1,1.8-0.2
			c0.6-0.1,1.2-0.3,1.8-0.6v2.2c-0.5,0.3-1,0.4-1.6,0.6S71.6,345.8,70.8,345.8z M70.3,336.9c-0.6,0-1.1,0.2-1.4,0.6
			c-0.3,0.4-0.5,0.9-0.6,1.7h4.1c0-0.7-0.2-1.3-0.6-1.7S71,336.9,70.3,336.9z"/>
		<path class="st2" d="M82.2,345.8c-1.7,0-3-0.5-4-1.4c-1-0.9-1.4-2.3-1.4-4c0-1.8,0.4-3.1,1.3-4.1c0.9-1,2.1-1.5,3.7-1.5
			c1.5,0,2.7,0.4,3.5,1.3s1.3,2,1.3,3.5v1.4h-6.8c0,0.8,0.3,1.5,0.7,1.9s1.1,0.7,1.9,0.7c0.6,0,1.2-0.1,1.8-0.2
			c0.6-0.1,1.2-0.3,1.8-0.6v2.2c-0.5,0.3-1,0.4-1.6,0.6S83,345.8,82.2,345.8z M81.8,336.9c-0.6,0-1.1,0.2-1.4,0.6
			c-0.3,0.4-0.5,0.9-0.6,1.7h4.1c0-0.7-0.2-1.3-0.6-1.7S82.4,336.9,81.8,336.9z"/>
		<path class="st2" d="M92.2,345.8c-1.2,0-2.2-0.5-2.9-1.4c-0.7-1-1.1-2.3-1.1-4c0-1.7,0.4-3.1,1.1-4.1c0.7-1,1.7-1.5,3-1.5
			c1.3,0,2.3,0.5,3.1,1.6h0.1c-0.1-0.8-0.2-1.5-0.2-2.1v-3.4h2.9v14.7h-2.2l-0.6-1.4h-0.1C94.6,345.3,93.6,345.8,92.2,345.8z
			 M93.2,343.5c0.7,0,1.3-0.2,1.6-0.6c0.3-0.4,0.5-1.2,0.6-2.2v-0.3c0-1.1-0.2-2-0.5-2.4s-0.9-0.7-1.7-0.7c-0.6,0-1.1,0.3-1.5,0.8
			c-0.4,0.5-0.5,1.3-0.5,2.4s0.2,1.8,0.5,2.3C92.1,343.3,92.6,343.5,93.2,343.5z"/>
	</g>
</g>
<line class="st3" x1="40.7" y1="362" x2="391.1" y2="362"/>
</svg>
