<?xml version="1.0" encoding="utf-8"?>
<!-- Generator: Adobe Illustrator 23.0.3, SVG Export Plug-In . SVG Version: 6.00 Build 0)  -->
<svg version="1.1" id="Layer_1" xmlns="http://www.w3.org/2000/svg" xmlns:xlink="http://www.w3.org/1999/xlink" x="0px" y="0px"
	 viewBox="0 0 34 42" style="enable-background:new 0 0 34 42;" xml:space="preserve">
<style type="text/css">
	.st0{fill:#AAAAAA;}
</style>
<g>
	<g>
		<g>
			<g>
				<path class="st0" d="M25,33H9c-2.1,0-3.8-1.7-3.8-3.8V13.5c0-2,1.7-3.8,3.8-3.8h16c2.1,0,3.8,1.7,3.8,3.8v15.7
					C28.8,31.3,27.1,33,25,33L25,33z M9,11.3c-1.2,0-2.2,1-2.2,2.2v15.7c0,1.3,1,2.2,2.2,2.2h16c1.3,0,2.2-1,2.2-2.2V13.5
					c0-1.2-1-2.2-2.2-2.2L9,11.3z"/>
			</g>
		</g>
	</g>
	<g>
		<g>
			<g>
				<path class="st0" d="M24.4,22.6c-0.4,0-0.8-0.3-0.8-0.8v-7.1h-6.9c-0.4,0-0.8-0.3-0.8-0.8s0.3-0.8,0.8-0.8h7.7
					c0.4,0,0.8,0.3,0.8,0.8v7.9C25.2,22.3,24.9,22.6,24.4,22.6z"/>
			</g>
		</g>
	</g>
	<g>
		<g>
			<g>
				<path class="st0" d="M17.3,29.8H9.6c-0.4,0-0.8-0.3-0.8-0.8v-7.8c0-0.4,0.3-0.8,0.8-0.8c0.4,0,0.8,0.3,0.8,0.8v7.1h6.9
					c0.4,0,0.8,0.3,0.8,0.8C18,29.5,17.7,29.8,17.3,29.8z"/>
			</g>
		</g>
	</g>
</g>
</svg>
