<?xml version="1.0" encoding="utf-8"?>
<!-- Generator: Adobe Illustrator 23.0.3, SVG Export Plug-In . SVG Version: 6.00 Build 0)  -->
<svg version="1.1" id="Layer_1" xmlns="http://www.w3.org/2000/svg" xmlns:xlink="http://www.w3.org/1999/xlink" x="0px" y="0px"
	 viewBox="0 0 34 42" style="enable-background:new 0 0 34 42;" xml:space="preserve">
<style type="text/css">
	.st0{fill:#AAAAAA;stroke:#AAAAAA;stroke-miterlimit:10;}
</style>
<path class="st0" d="M28,9.8h-5.2c-0.4,0-0.6,0.3-0.6,0.6c0,0.4,0.3,0.6,0.6,0.6h3.6l-5.3,5.3c-0.2,0.2-0.2,0.4-0.2,0.6
	c0.1,0.2,0.2,0.4,0.5,0.5c0.2,0.1,0.5,0,0.6-0.2l5.3-5.3v3.6c0,0.4,0.3,0.6,0.6,0.6s0.6-0.3,0.6-0.6v-5.2C28.6,10.1,28.3,9.8,28,9.8
	z"/>
<path class="st0" d="M12,25.4l-5.3,5.3v-3.6c0-0.4-0.3-0.6-0.6-0.6s-0.6,0.3-0.6,0.6v5.2C5.4,32.7,5.7,33,6,33h5.2
	c0.4,0,0.6-0.3,0.6-0.6s-0.3-0.6-0.6-0.6H7.6l5.3-5.3c0.2-0.3,0.2-0.7,0-0.9C12.7,25.2,12.3,25.2,12,25.4z"/>
<path class="st0" d="M28,26.5c-0.4,0-0.6,0.3-0.6,0.6v3.6L22,25.4c-0.3-0.2-0.7-0.2-0.9,0c-0.2,0.2-0.3,0.7,0,0.9l5.3,5.3h-3.6
	c-0.4,0-0.6,0.3-0.6,0.6s0.3,0.6,0.6,0.6H28c0.4,0,0.6-0.3,0.6-0.6v-5.2C28.6,26.8,28.3,26.5,28,26.5z"/>
<path class="st0" d="M7.6,11.1h3.6c0.4,0,0.6-0.3,0.6-0.6c0-0.4-0.3-0.6-0.6-0.6H6c-0.4,0-0.6,0.3-0.6,0.6v5.2
	c0,0.4,0.3,0.6,0.6,0.6s0.6-0.3,0.6-0.6V12l5.3,5.3c0.3,0.2,0.7,0.2,0.9,0c0.2-0.2,0.3-0.7,0-0.9L7.6,11.1z"/>
</svg>
