<svg id="Layer_1" data-name="Layer 1" xmlns="http://www.w3.org/2000/svg" viewBox="0 0 367.8 367.8"><defs><style>.cls-1{fill:#393939;}.cls-2{fill:#2c2b2d;}.cls-3{fill:#424342;}.cls-4{fill:#545454;}.cls-5{fill:#fe0202;}.cls-6{fill:#e8bf3d;}.cls-7{font-size:18.39px;font-family:OpenSans-SemiBold, Open Sans;font-weight:600;}.cls-7,.cls-8,.cls-9{fill:#fff;}.cls-8{font-size:13.97px;}.cls-8,.cls-9{font-family:OpenSans-Regular, Open Sans;}.cls-9{font-size:12px;}.cls-10{fill:#d3d3d3;}.cls-11,.cls-13{fill:none;stroke:#fff;stroke-miterlimit:10;}.cls-11{stroke-width:3px;}.cls-12{fill:#2baf2b;}.cls-13{stroke-width:1.5px;}</style></defs><title>imgsArtboard 45</title><rect class="cls-1" x="8.54" y="8.69" width="351.78" height="351.78" rx="11.86"/><circle class="cls-2" cx="184.43" cy="184.58" r="168.54"/><circle class="cls-3" cx="184.43" cy="184.58" r="159.36"/><circle class="cls-4" cx="186.61" cy="184.58" r="159.36"/><path class="cls-5" d="M91.07,56.62a156.23,156.23,0,0,0-48.45,59L49.37,119A152,152,0,0,1,95.69,62.44Z"/><path class="cls-6" d="M35.76,168A151.48,151.48,0,0,1,49.5,119l-6.83-3.27a159.5,159.5,0,0,0,13.2,159.73l5.94-4.31C42,242.66,31.77,205.82,35.76,168Z"/><text class="cls-7" transform="translate(145.25 130.32)">AIRSPEED</text><text class="cls-8" transform="translate(167.05 151.18)">IAS Kt</text><text class="cls-9" transform="translate(227.89 68.82)">40</text><text class="cls-9" transform="translate(267.29 99.95)">50</text><text class="cls-9" transform="translate(295 138.25)">60</text><path class="cls-10" d="M243.33,35.39l-2.57,6.89A151.69,151.69,0,0,1,285.62,298.8l5.3,5.93A159.38,159.38,0,0,0,243.33,35.39Z"/><line class="cls-11" x1="239.07" y1="48.16" x2="243.79" y2="35.57"/><path class="cls-12" d="M295.07,289.92a151.94,151.94,0,0,1-109,46.08c-51.8,0-98-26.72-125.39-66.35l-6.22,3.9c29.52,43.3,77.43,70.13,132,70.13,39.93,0,82.77-15.48,114.24-48.22Z"/><line class="cls-11" x1="288.76" y1="80.36" x2="298.27" y2="70.86"/><line class="cls-11" x1="321.74" y1="129.32" x2="334.25" y2="124.4"/><line class="cls-11" x1="332.45" y1="187.33" x2="345.87" y2="188.1"/><line class="cls-11" x1="319.26" y1="245.02" x2="331.53" y2="250.5"/><line class="cls-11" x1="284.49" y1="292.5" x2="293.51" y2="302.47"/><line class="cls-11" x1="233.15" y1="322.56" x2="237.46" y2="335.29"/><line class="cls-11" x1="174.81" y1="329.76" x2="173.91" y2="343.17"/><line class="cls-11" x1="118.3" y1="313.36" x2="112.08" y2="325.27"/><line class="cls-11" x1="72.54" y1="275.53" x2="62.18" y2="284.09"/><line class="cls-11" x1="46.04" y1="224.03" x2="33.07" y2="227.58"/><line class="cls-11" x1="41.65" y1="166.24" x2="28.32" y2="164.5"/><line class="cls-11" x1="60.21" y1="111.01" x2="48.57" y2="104.29"/><line class="cls-11" x1="99.83" y1="66.92" x2="92.09" y2="55.93"/><text class="cls-9" transform="translate(303.24 190.67)">70</text><text class="cls-9" transform="translate(289 240.77)">80</text><text class="cls-9" transform="translate(261.23 279.81)">90</text><text class="cls-9" transform="translate(217.81 303.25)">100</text><text class="cls-9" transform="translate(166.21 308.98)">110</text><text class="cls-9" transform="translate(116.45 294.86)">120</text><text class="cls-9" transform="translate(85.23 262.67)">130</text><text class="cls-9" transform="translate(63.64 221.03)">140</text><text class="cls-9" transform="translate(58.31 170.06)">150</text><text class="cls-9" transform="translate(71.9 125.52)">160</text><text class="cls-9" transform="translate(107.98 86.39)">170</text><line class="cls-13" x1="246.83" y1="47.24" x2="250.63" y2="38.38"/><line class="cls-13" x1="251.97" y1="49.61" x2="256.19" y2="40.95"/><line class="cls-13" x1="257.53" y1="52.45" x2="262.07" y2="43.97"/><line class="cls-13" x1="262.7" y1="55.38" x2="267.51" y2="47.06"/><line class="cls-13" x1="267.87" y1="58.57" x2="272.98" y2="50.45"/><line class="cls-13" x1="272.68" y1="61.85" x2="278.13" y2="53.97"/><line class="cls-13" x1="277.8" y1="65.54" x2="283.62" y2="57.94"/><line class="cls-13" x1="282.34" y1="69.25" x2="288.39" y2="61.85"/><line class="cls-13" x1="286.7" y1="72.98" x2="293.1" y2="65.91"/><line class="cls-13" x1="296.14" y1="82.29" x2="303.13" y2="75.65"/><line class="cls-13" x1="299.93" y1="86.5" x2="307.22" y2="80.21"/><line class="cls-13" x1="303.92" y1="91.3" x2="311.44" y2="85.31"/><line class="cls-13" x1="307.52" y1="96.03" x2="315.21" y2="90.29"/><line class="cls-13" x1="311" y1="101.01" x2="318.9" y2="95.56"/><line class="cls-13" x1="314.12" y1="105.91" x2="322.24" y2="100.83"/><line class="cls-13" x1="317.38" y1="111.33" x2="325.72" y2="106.64"/><line class="cls-13" x1="320.08" y1="116.53" x2="328.56" y2="112.13"/><line class="cls-13" x1="322.61" y1="121.68" x2="331.28" y2="117.71"/><line class="cls-13" x1="327.76" y1="134.3" x2="336.82" y2="131.01"/><line class="cls-13" x1="329.56" y1="139.68" x2="338.75" y2="136.82"/><line class="cls-13" x1="331.29" y1="145.67" x2="340.58" y2="143.18"/><line class="cls-13" x1="332.7" y1="151.45" x2="342.05" y2="149.25"/><line class="cls-13" x1="333.9" y1="157.4" x2="343.32" y2="155.57"/><line class="cls-13" x1="334.8" y1="163.14" x2="344.28" y2="161.73"/><line class="cls-13" x1="335.63" y1="169.41" x2="345.14" y2="168.45"/><line class="cls-13" x1="336.03" y1="175.26" x2="345.56" y2="174.61"/><line class="cls-13" x1="336.29" y1="180.99" x2="345.82" y2="180.81"/><line class="cls-13" x1="335.96" y1="194.25" x2="345.58" y2="194.8"/><line class="cls-13" x1="335.49" y1="199.89" x2="345.06" y2="200.9"/><line class="cls-13" x1="334.71" y1="206.08" x2="344.23" y2="207.46"/><line class="cls-13" x1="333.73" y1="211.94" x2="343.18" y2="213.62"/><line class="cls-13" x1="332.48" y1="217.89" x2="341.86" y2="219.92"/><line class="cls-13" x1="331.04" y1="223.52" x2="340.31" y2="225.97"/><line class="cls-13" x1="329.32" y1="229.6" x2="338.45" y2="232.48"/><line class="cls-13" x1="327.38" y1="235.13" x2="336.39" y2="238.3"/><line class="cls-13" x1="325.36" y1="240.5" x2="334.19" y2="244.11"/><line class="cls-13" x1="319.73" y1="252.82" x2="328.34" y2="257.14"/><line class="cls-13" x1="317.06" y1="257.81" x2="325.45" y2="262.54"/><line class="cls-13" x1="313.89" y1="263.19" x2="322.08" y2="268.23"/><line class="cls-13" x1="310.66" y1="268.18" x2="318.68" y2="273.47"/><line class="cls-13" x1="307.16" y1="273.15" x2="314.96" y2="278.73"/><line class="cls-13" x1="303.61" y1="277.75" x2="311.15" y2="283.67"/><line class="cls-13" x1="299.62" y1="282.65" x2="306.86" y2="288.91"/><line class="cls-13" x1="295.64" y1="286.96" x2="302.66" y2="293.44"/><line class="cls-13" x1="291.66" y1="291.09" x2="298.34" y2="297.9"/><line class="cls-13" x1="281.8" y1="299.96" x2="288.01" y2="307.33"/><line class="cls-13" x1="277.38" y1="303.49" x2="283.22" y2="311.14"/><line class="cls-13" x1="272.35" y1="307.18" x2="277.88" y2="315.05"/><line class="cls-13" x1="267.41" y1="310.49" x2="272.68" y2="318.52"/><line class="cls-13" x1="262.23" y1="313.67" x2="267.2" y2="321.88"/><line class="cls-13" x1="257.15" y1="316.5" x2="261.74" y2="324.91"/><line class="cls-13" x1="251.55" y1="319.42" x2="255.73" y2="328.03"/><line class="cls-13" x1="246.2" y1="321.81" x2="250.09" y2="330.54"/><line class="cls-13" x1="240.91" y1="324.03" x2="244.35" y2="332.92"/><line class="cls-13" x1="228.37" y1="328.06" x2="231.16" y2="337.29"/><line class="cls-13" x1="222.91" y1="329.56" x2="225.25" y2="338.9"/><line class="cls-13" x1="216.83" y1="330.96" x2="218.8" y2="340.37"/><line class="cls-13" x1="210.98" y1="332.04" x2="212.65" y2="341.5"/><line class="cls-13" x1="204.97" y1="332.92" x2="206.28" y2="342.42"/><line class="cls-13" x1="199.18" y1="333.5" x2="200.07" y2="343.04"/><line class="cls-13" x1="192.88" y1="333.97" x2="193.32" y2="343.53"/><line class="cls-13" x1="187.02" y1="334.05" x2="187.14" y2="343.6"/><line class="cls-13" x1="181.29" y1="333.99" x2="180.93" y2="343.52"/><line class="cls-13" x1="168.06" y1="332.93" x2="166.98" y2="342.51"/><line class="cls-13" x1="162.46" y1="332.15" x2="160.92" y2="341.65"/><line class="cls-13" x1="156.32" y1="331.04" x2="154.41" y2="340.46"/><line class="cls-13" x1="150.52" y1="329.73" x2="148.32" y2="339.07"/><line class="cls-13" x1="144.65" y1="328.16" x2="142.1" y2="337.4"/><line class="cls-13" x1="139.1" y1="326.41" x2="136.15" y2="335.52"/><line class="cls-13" x1="133.13" y1="324.35" x2="129.76" y2="333.3"/><line class="cls-13" x1="127.71" y1="322.11" x2="124.05" y2="330.93"/><line class="cls-13" x1="122.47" y1="319.79" x2="118.38" y2="328.41"/><line class="cls-13" x1="110.39" y1="313.26" x2="105.57" y2="321.6"/><line class="cls-13" x1="105.56" y1="310.3" x2="100.36" y2="318.39"/><line class="cls-13" x1="100.38" y1="306.82" x2="94.87" y2="314.7"/><line class="cls-13" x1="95.59" y1="303.3" x2="89.84" y2="310.99"/><line class="cls-13" x1="90.84" y1="299.52" x2="84.81" y2="306.98"/><line class="cls-13" x1="86.45" y1="295.7" x2="80.11" y2="302.87"/><line class="cls-13" x1="81.8" y1="291.43" x2="75.13" y2="298.28"/><line class="cls-13" x1="77.73" y1="287.21" x2="70.85" y2="293.83"/><line class="cls-13" x1="73.84" y1="282.99" x2="66.65" y2="289.25"/><line class="cls-13" x1="65.57" y1="272.62" x2="57.85" y2="278.39"/><line class="cls-13" x1="62.3" y1="268" x2="54.32" y2="273.38"/><line class="cls-13" x1="58.92" y1="262.76" x2="50.74" y2="267.82"/><line class="cls-13" x1="55.9" y1="257.63" x2="47.58" y2="262.43"/><line class="cls-13" x1="53.03" y1="252.28" x2="44.54" y2="256.75"/><line class="cls-13" x1="50.51" y1="247.04" x2="41.84" y2="251.13"/><line class="cls-13" x1="47.92" y1="241.28" x2="39.08" y2="244.94"/><line class="cls-13" x1="45.85" y1="235.79" x2="36.91" y2="239.16"/><line class="cls-13" x1="43.94" y1="230.38" x2="34.86" y2="233.3"/><line class="cls-13" x1="40.8" y1="219.85" x2="31.46" y2="222.21"/><line class="cls-13" x1="39.56" y1="214.32" x2="30.12" y2="216.24"/><line class="cls-13" x1="38.43" y1="208.19" x2="28.94" y2="209.73"/><line class="cls-13" x1="37.61" y1="202.3" x2="28.09" y2="203.54"/><line class="cls-13" x1="37.01" y1="196.25" x2="27.46" y2="197.13"/><line class="cls-13" x1="36.69" y1="190.45" x2="27.12" y2="190.9"/><line class="cls-13" x1="36.5" y1="184.13" x2="26.94" y2="184.13"/><line class="cls-13" x1="36.69" y1="178.27" x2="27.14" y2="177.96"/><line class="cls-13" x1="37" y1="172.54" x2="27.5" y2="171.76"/><line class="cls-13" x1="38.79" y1="159.37" x2="29.27" y2="157.86"/><line class="cls-13" x1="39.87" y1="153.85" x2="30.44" y2="151.89"/><line class="cls-13" x1="41.23" y1="147.77" x2="31.9" y2="145.44"/><line class="cls-13" x1="42.81" y1="142" x2="33.57" y2="139.38"/><line class="cls-13" x1="44.6" y1="136.25" x2="35.48" y2="133.29"/><line class="cls-13" x1="46.49" y1="130.75" x2="37.51" y2="127.39"/><line class="cls-13" x1="48.89" y1="124.91" x2="40.1" y2="121.13"/><line class="cls-13" x1="51.29" y1="119.56" x2="42.64" y2="115.51"/><line class="cls-13" x1="53.84" y1="114.42" x2="45.42" y2="109.95"/><line class="cls-13" x1="60.86" y1="102.55" x2="52.74" y2="97.35"/><line class="cls-13" x1="64.04" y1="97.87" x2="56.19" y2="92.29"/><line class="cls-13" x1="67.75" y1="92.85" x2="60.13" y2="86.98"/><line class="cls-13" x1="71.48" y1="88.22" x2="64.07" y2="82.12"/><line class="cls-13" x1="75.48" y1="83.65" x2="68.31" y2="77.28"/><line class="cls-13" x1="79.5" y1="79.45" x2="72.62" y2="72.78"/><line class="cls-13" x1="83.98" y1="74.99" x2="77.44" y2="68.01"/><line class="cls-13" x1="88.38" y1="71.12" x2="82.08" y2="63.94"/><line class="cls-13" x1="92.78" y1="67.44" x2="86.85" y2="59.97"/></svg>