<svg id="Layer_1" data-name="Layer 1" xmlns="http://www.w3.org/2000/svg" viewBox="0 0 367.8 367.8"><defs><style>.cls-1{fill:#393939;}.cls-2{fill:#2c2b2d;}.cls-3{fill:#545454;}.cls-4{fill:#181818;}.cls-5{font-size:12.79px;font-family:OpenSans-SemiBold, Open Sans;font-weight:600;}.cls-5,.cls-6,.cls-7{fill:#fff;}.cls-6{font-size:9.72px;}.cls-6,.cls-7{font-family:OpenSans-Regular, Open Sans;}.cls-7{font-size:23.35px;}.cls-8,.cls-9{fill:none;stroke:#fff;stroke-miterlimit:10;}.cls-8{stroke-width:1.5px;}.cls-9{stroke-width:5px;}</style></defs><title>imgsArtboard 53</title><rect class="cls-1" x="8.12" y="8.71" width="351.78" height="351.78" rx="11.86"/><circle class="cls-2" cx="184.01" cy="184.6" r="168.54"/><circle class="cls-3" cx="184.47" cy="184.45" r="159.36"/><rect class="cls-4" x="131.9" y="104.2" width="102.78" height="36.3" rx="2"/><text class="cls-5" transform="translate(155.5 156.94)">Altimeter</text><text class="cls-6" transform="translate(168.57 171.45)">x100 ft</text><text class="cls-7" transform="translate(177.77 67.36)">0</text><line class="cls-8" x1="286.63" y1="80.03" x2="295.94" y2="70.72"/><line class="cls-8" x1="297.87" y1="92.11" x2="308.08" y2="83.85"/><line class="cls-8" x1="307.41" y1="105.19" x2="318.35" y2="97.99"/><line class="cls-8" x1="315.66" y1="119.58" x2="327.34" y2="113.78"/><line class="cls-9" x1="184.44" y1="25.05" x2="184.44" y2="42.05"/><line class="cls-9" x1="184.44" y1="326.77" x2="184.44" y2="343.77"/><line class="cls-9" x1="280.21" y1="57.23" x2="270.08" y2="70.88"/><line class="cls-9" x1="100.3" y1="299.45" x2="90.16" y2="313.1"/><line class="cls-9" x1="335.18" y1="132.67" x2="319.13" y2="138.26"/><line class="cls-9" x1="50.22" y1="231.84" x2="34.16" y2="237.43"/><line class="cls-9" x1="88.97" y1="56.29" x2="99.11" y2="69.93"/><line class="cls-9" x1="268.89" y1="298.5" x2="279.02" y2="312.15"/><line class="cls-9" x1="34.01" y1="131.72" x2="50.06" y2="137.31"/><line class="cls-9" x1="318.97" y1="230.89" x2="335.02" y2="236.48"/><text class="cls-7" transform="translate(254.2 92.25)">1</text><text class="cls-7" transform="translate(298.8 149.08)">2</text><text class="cls-7" transform="translate(297.97 233.69)">3</text><text class="cls-7" transform="translate(179.04 316.69)">5</text><text class="cls-7" transform="translate(250.84 288.87)">4</text><text class="cls-7" transform="translate(106.18 288.87)">6</text><text class="cls-7" transform="translate(59.54 233.69)">7</text><text class="cls-7" transform="translate(61.28 149.08)">8</text><text class="cls-7" transform="translate(102.29 92.25)">9</text><line class="cls-8" x1="255.27" y1="312.35" x2="261.55" y2="323.93"/><line class="cls-8" x1="238.83" y1="320.23" x2="243.7" y2="332.42"/><line class="cls-8" x1="222.29" y1="325.73" x2="225.65" y2="338.38"/><line class="cls-8" x1="205.61" y1="329.25" x2="207.4" y2="342.17"/><line class="cls-8" x1="316.12" y1="248.15" x2="327.91" y2="254.01"/><line class="cls-8" x1="307.2" y1="264.06" x2="318.2" y2="271.23"/><line class="cls-8" x1="296.84" y1="278.07" x2="306.87" y2="286.49"/><line class="cls-8" x1="285.22" y1="290.55" x2="294.12" y2="300.08"/><line class="cls-8" x1="327.5" y1="158.41" x2="340.43" y2="155.89"/><line class="cls-8" x1="330.11" y1="176.46" x2="343.2" y2="175.46"/><line class="cls-8" x1="330.42" y1="193.89" x2="343.5" y2="194.46"/><line class="cls-8" x1="328.79" y1="210.86" x2="341.66" y2="213.01"/><line class="cls-8" x1="206.71" y1="39.9" x2="208.91" y2="26.91"/><line class="cls-8" x1="224.52" y1="43.82" x2="228.2" y2="31.21"/><line class="cls-8" x1="240.94" y1="49.67" x2="246.09" y2="37.64"/><line class="cls-8" x1="256.25" y1="57.18" x2="262.79" y2="45.9"/><line class="cls-8" x1="163.9" y1="329.27" x2="161.94" y2="342.29"/><line class="cls-8" x1="146.03" y1="325.67" x2="142.58" y2="338.34"/><line class="cls-8" x1="129.51" y1="320.11" x2="124.58" y2="332.24"/><line class="cls-8" x1="114.06" y1="312.88" x2="107.72" y2="324.28"/><line class="cls-8" x1="85.31" y1="291.83" x2="76.26" y2="301.4"/><line class="cls-8" x1="72.69" y1="278.67" x2="62.62" y2="287.1"/><line class="cls-8" x1="62.3" y1="264.68" x2="51.32" y2="271.82"/><line class="cls-8" x1="53.75" y1="249.92" x2="42.03" y2="255.66"/><line class="cls-8" x1="40.49" y1="210.73" x2="27.52" y2="213.01"/><line class="cls-8" x1="38.22" y1="192.64" x2="25.11" y2="193.4"/><line class="cls-8" x1="38.23" y1="175.21" x2="25.16" y2="174.39"/><line class="cls-8" x1="40.17" y1="158.27" x2="27.35" y2="155.88"/><line class="cls-8" x1="53.28" y1="119.84" x2="41.54" y2="113.89"/><line class="cls-8" x1="62.32" y1="104" x2="51.37" y2="96.74"/><line class="cls-8" x1="72.78" y1="90.05" x2="62.81" y2="81.57"/><line class="cls-8" x1="84.49" y1="77.66" x2="75.66" y2="68.06"/><line class="cls-8" x1="113.46" y1="57.17" x2="107.08" y2="45.65"/><line class="cls-8" x1="129.83" y1="49.14" x2="124.85" y2="37"/><line class="cls-8" x1="146.32" y1="43.49" x2="142.85" y2="30.87"/><line class="cls-8" x1="162.97" y1="39.83" x2="161.06" y2="26.92"/></svg>