<svg id="Layer_1" data-name="Layer 1" xmlns="http://www.w3.org/2000/svg" viewBox="0 0 332.94 324.86"><defs><style>.cls-1{fill:#545454;}.cls-2{fill:#181818;}.cls-3{font-size:12.79px;font-family:OpenSans-SemiBold, Open Sans;font-weight:600;}.cls-3,.cls-4,.cls-5{fill:#fff;}.cls-4{font-size:9.72px;}.cls-4,.cls-5{font-family:OpenSans-Regular, Open Sans;}.cls-5{font-size:23.35px;}.cls-6,.cls-7{fill:none;stroke:#fff;stroke-miterlimit:10;}.cls-6{stroke-width:1.5px;}.cls-7{stroke-width:5px;}</style></defs><title>imgsArtboard 47</title><circle class="cls-1" cx="166.47" cy="162.45" r="159.36"/><rect class="cls-2" x="113.9" y="82.2" width="102.78" height="36.3" rx="2"/><text class="cls-3" transform="translate(137.5 134.94)">Altimeter</text><text class="cls-4" transform="translate(150.57 149.45)">x100 ft</text><text class="cls-5" transform="translate(159.77 45.36)">0</text><line class="cls-6" x1="268.63" y1="58.03" x2="277.94" y2="48.72"/><line class="cls-6" x1="279.87" y1="70.11" x2="290.08" y2="61.85"/><line class="cls-6" x1="289.41" y1="83.19" x2="300.35" y2="75.99"/><line class="cls-6" x1="297.66" y1="97.58" x2="309.34" y2="91.78"/><line class="cls-7" x1="166.44" y1="3.05" x2="166.44" y2="20.05"/><line class="cls-7" x1="166.44" y1="304.77" x2="166.44" y2="321.77"/><line class="cls-7" x1="262.21" y1="35.23" x2="252.08" y2="48.88"/><line class="cls-7" x1="82.3" y1="277.45" x2="72.16" y2="291.1"/><line class="cls-7" x1="317.18" y1="110.67" x2="301.13" y2="116.26"/><line class="cls-7" x1="32.22" y1="209.84" x2="16.16" y2="215.43"/><line class="cls-7" x1="70.97" y1="34.29" x2="81.11" y2="47.93"/><line class="cls-7" x1="250.89" y1="276.5" x2="261.02" y2="290.15"/><line class="cls-7" x1="16.01" y1="109.72" x2="32.06" y2="115.31"/><line class="cls-7" x1="300.97" y1="208.89" x2="317.02" y2="214.48"/><text class="cls-5" transform="translate(236.2 70.25)">1</text><text class="cls-5" transform="translate(280.8 127.08)">2</text><text class="cls-5" transform="translate(279.97 211.69)">3</text><text class="cls-5" transform="translate(161.04 294.69)">5</text><text class="cls-5" transform="translate(232.84 266.87)">4</text><text class="cls-5" transform="translate(88.18 266.87)">6</text><text class="cls-5" transform="translate(41.54 211.69)">7</text><text class="cls-5" transform="translate(43.28 127.08)">8</text><text class="cls-5" transform="translate(84.29 70.25)">9</text><line class="cls-6" x1="237.27" y1="290.35" x2="243.55" y2="301.93"/><line class="cls-6" x1="220.83" y1="298.23" x2="225.7" y2="310.42"/><line class="cls-6" x1="204.29" y1="303.73" x2="207.65" y2="316.38"/><line class="cls-6" x1="187.61" y1="307.25" x2="189.4" y2="320.17"/><line class="cls-6" x1="298.12" y1="226.15" x2="309.91" y2="232.01"/><line class="cls-6" x1="289.2" y1="242.06" x2="300.2" y2="249.23"/><line class="cls-6" x1="278.84" y1="256.07" x2="288.87" y2="264.49"/><line class="cls-6" x1="267.22" y1="268.55" x2="276.12" y2="278.08"/><line class="cls-6" x1="309.5" y1="136.41" x2="322.43" y2="133.89"/><line class="cls-6" x1="312.11" y1="154.46" x2="325.2" y2="153.46"/><line class="cls-6" x1="312.42" y1="171.89" x2="325.5" y2="172.46"/><line class="cls-6" x1="310.79" y1="188.86" x2="323.66" y2="191.01"/><line class="cls-6" x1="188.71" y1="17.9" x2="190.91" y2="4.91"/><line class="cls-6" x1="206.52" y1="21.82" x2="210.2" y2="9.21"/><line class="cls-6" x1="222.94" y1="27.67" x2="228.09" y2="15.64"/><line class="cls-6" x1="238.25" y1="35.18" x2="244.79" y2="23.9"/><line class="cls-6" x1="145.9" y1="307.27" x2="143.94" y2="320.29"/><line class="cls-6" x1="128.03" y1="303.67" x2="124.58" y2="316.34"/><line class="cls-6" x1="111.51" y1="298.11" x2="106.58" y2="310.24"/><line class="cls-6" x1="96.06" y1="290.88" x2="89.72" y2="302.28"/><line class="cls-6" x1="67.31" y1="269.83" x2="58.26" y2="279.4"/><line class="cls-6" x1="54.69" y1="256.67" x2="44.62" y2="265.1"/><line class="cls-6" x1="44.3" y1="242.68" x2="33.32" y2="249.82"/><line class="cls-6" x1="35.75" y1="227.92" x2="24.03" y2="233.66"/><line class="cls-6" x1="22.49" y1="188.73" x2="9.52" y2="191.01"/><line class="cls-6" x1="20.22" y1="170.64" x2="7.11" y2="171.4"/><line class="cls-6" x1="20.23" y1="153.21" x2="7.16" y2="152.39"/><line class="cls-6" x1="22.17" y1="136.27" x2="9.35" y2="133.88"/><line class="cls-6" x1="35.28" y1="97.84" x2="23.54" y2="91.89"/><line class="cls-6" x1="44.32" y1="82" x2="33.37" y2="74.74"/><line class="cls-6" x1="54.78" y1="68.05" x2="44.81" y2="59.57"/><line class="cls-6" x1="66.49" y1="55.66" x2="57.66" y2="46.06"/><line class="cls-6" x1="95.46" y1="35.17" x2="89.08" y2="23.65"/><line class="cls-6" x1="111.83" y1="27.14" x2="106.85" y2="15"/><line class="cls-6" x1="128.32" y1="21.49" x2="124.85" y2="8.87"/><line class="cls-6" x1="144.97" y1="17.83" x2="143.06" y2="4.92"/></svg>