<svg id="Layer_1" data-name="Layer 1" xmlns="http://www.w3.org/2000/svg" xmlns:xlink="http://www.w3.org/1999/xlink" viewBox="0 0 165.68 147.18"><defs><style>.cls-1{fill:none;}.cls-2{clip-path:url(#clip-path);}.cls-3{opacity:0.23;}.cls-4{fill:#fff;}.cls-5{fill:#00acdd;}.cls-6{fill:#494949;}</style><clipPath id="clip-path"><rect class="cls-1" width="165.68" height="147.18"/></clipPath></defs><title>bottom-right-logo</title><g class="cls-2"><g class="cls-3"><ellipse class="cls-4" cx="100.05" cy="101.27" rx="95.91" ry="95.02" transform="translate(-30.57 44.67) rotate(-21.92)"/><path class="cls-5" d="M18.45,128.81l159.23-64a86.07,86.07,0,0,0-159.23,64ZM94.91,31h0a3.06,3.06,0,0,1,1.85,5.84L58.14,52.36a3,3,0,1,1-1.76-5.81L94.49,31.21ZM74.07,91.83A3.06,3.06,0,0,1,72.23,86l38.55-15.55h0a3,3,0,0,1,1.83,5.8L74.49,91.59Zm-24-12a4,4,0,0,1-3-7.32l72.15-29a4,4,0,0,1,3,7.31L50.1,79.8Z"/><path class="cls-6" d="M182,73.8,22.74,137.93A86.11,86.11,0,0,0,182,73.8ZM105.9,171.55a3,3,0,1,1-2.28-5.63l38.13-15.34h0a3,3,0,0,1,2.26,5.63L105.9,171.48Zm20-60.45a3,3,0,0,1,2.26,5.63L90,132.07h0a3,3,0,1,1-2.26-5.63L125.9,111.1Zm24.5,11.77.49-.19.34-.14a3.85,3.85,0,0,1,4.78,2.58,2.13,2.13,0,0,1,.14.35,3.87,3.87,0,0,1-2.58,4.79L80.93,159.48l-.33.12A3.86,3.86,0,0,1,75.8,157l-.12-.34a3.85,3.85,0,0,1,2.57-4.79l72.28-29.09Z"/></g></g></svg>