<svg id="Layer_1" data-name="Layer 1" xmlns="http://www.w3.org/2000/svg" viewBox="0 0 39.9 195.64"><defs><style>.cls-1{fill:none;stroke:#fff;stroke-linecap:round;stroke-miterlimit:10;stroke-width:4px;}.cls-2{fill:#fff;}</style></defs><title>imgsArtboard 51</title><line class="cls-1" x1="20.28" y1="68.83" x2="20.28" y2="13.65"/><polygon class="cls-2" points="27.26 15.69 20.28 3.6 13.3 15.69 27.26 15.69"/><path class="cls-2" d="M22.84,99.24l10.62,4.19a1.24,1.24,0,0,0,1.69-1.25L35,100.77a1.26,1.26,0,0,0-.53-.92c-7.79-5.45-6.95-5-11.65-8.25V81.53a2.29,2.29,0,0,0-2.58-2.17,2.3,2.3,0,0,0-2.58,2.17V91.6c-4.7,3.28-3.85,2.8-11.65,8.25a1.26,1.26,0,0,0-.53.92l-.11,1.41a1.24,1.24,0,0,0,1.69,1.25l10.62-4.19s0,12.42,0,12.61l-3.92,2.69a1.25,1.25,0,0,0-.54,1h0a1.24,1.24,0,0,0,1.65,1.17L19,115.34H21.6l4.06,1.39a1.24,1.24,0,0,0,1.65-1.17h0a1.25,1.25,0,0,0-.54-1l-3.93-2.69C22.87,111.66,22.84,99.24,22.84,99.24Z"/><line class="cls-1" x1="20.28" y1="127.65" x2="20.28" y2="187.73"/></svg>