<svg id="Layer_1" data-name="Layer 1" xmlns="http://www.w3.org/2000/svg" viewBox="0 0 332.94 324.86"><defs><style>.cls-1{fill:#686868;}.cls-2{font-size:23.34px;}.cls-2,.cls-3,.cls-4,.cls-5,.cls-6,.cls-7{fill:#fff;}.cls-2,.cls-4{font-family:OpenSans-SemiBold, Open Sans;font-weight:600;}.cls-3{font-size:23.34px;}.cls-3,.cls-6{font-family:OpenSans-Regular, Open Sans;}.cls-4,.cls-6{font-size:23.34px;}.cls-5,.cls-7{stroke:#fff;stroke-miterlimit:10;}.cls-5{stroke-width:5px;}.cls-7{stroke-width:2px;}</style></defs><title>imgArtboard 53</title><circle class="cls-1" cx="166.42" cy="163.13" r="159.32"/><text class="cls-2" transform="translate(156.76 46.14) rotate(0.04)">N</text><text class="cls-3" transform="translate(225.33 61.39) rotate(32.05)">3</text><text class="cls-3" transform="translate(266.33 103.52) rotate(61.4)">6</text><text class="cls-4" transform="translate(284.57 156.24) rotate(90.04)">E</text><text class="cls-2" transform="translate(172.53 277.99) rotate(-179.96)">S</text><text class="cls-3" transform="matrix(-0.47, 0.88, -0.88, -0.47, 275.15, 205.94)">12</text><text class="cls-3" transform="matrix(-0.84, -0.53, 0.53, -0.84, 113.56, 267.13)">21</text><text class="cls-3" transform="matrix(-0.47, -0.88, 0.88, -0.47, 70.86, 229.87)">24</text><text class="cls-4" transform="translate(49.07 173.63) rotate(-89.96)">W</text><text class="cls-3" transform="matrix(0.84, -0.54, 0.54, 0.84, 91.78, 72.62)">33</text><line class="cls-5" x1="166.5" y1="3.77" x2="166.49" y2="20.77"/><line class="cls-5" x1="166.29" y1="305.41" x2="166.27" y2="322.41"/><line class="cls-5" x1="325.71" y1="163.2" x2="308.71" y2="163.19"/><line class="cls-5" x1="24.06" y1="162.99" x2="7.07" y2="162.98"/><line class="cls-5" x1="253.27" y1="296.67" x2="244" y2="282.42"/><line class="cls-5" x1="88.77" y1="43.83" x2="79.5" y2="29.59"/><line class="cls-5" x1="306.91" y1="238.3" x2="291.92" y2="230.29"/><line class="cls-5" x1="40.91" y1="96.06" x2="25.92" y2="88.04"/><line class="cls-5" x1="79.37" y1="296.59" x2="88.66" y2="282.36"/><line class="cls-5" x1="244.23" y1="43.98" x2="253.52" y2="29.75"/><line class="cls-5" x1="25.82" y1="238.15" x2="40.82" y2="230.15"/><line class="cls-5" x1="292.01" y1="96.28" x2="307.01" y2="88.28"/><text class="cls-6" transform="matrix(-0.82, 0.57, -0.57, -0.82, 241.16, 253.35)">15</text><text class="cls-3" transform="translate(57.36 119.52) rotate(-62.44)">30</text><line class="cls-7" x1="213.91" y1="11.41" x2="208.83" y2="27.63"/><line class="cls-7" x1="28.34" y1="128.45" x2="11.86" y2="124.32"/><line class="cls-7" x1="212.43" y1="315.73" x2="206.89" y2="299.67"/><line class="cls-7" x1="125.07" y1="26.78" x2="120.37" y2="10.45"/><line class="cls-7" x1="284.45" y1="270.15" x2="271.86" y2="258.74"/><line class="cls-7" x1="60.93" y1="67.61" x2="48.34" y2="56.2"/><line class="cls-7" x1="49.57" y1="271.48" x2="62.04" y2="259.93"/><line class="cls-7" x1="270.81" y1="66.44" x2="283.27" y2="54.88"/><line class="cls-7" x1="11.81" y1="201.79" x2="28.29" y2="197.68"/><line class="cls-7" x1="304.47" y1="128.76" x2="320.96" y2="124.65"/><line class="cls-7" x1="320.92" y1="201.86" x2="304.43" y2="197.72"/><line class="cls-7" x1="125.09" y1="299.5" x2="120.19" y2="315.78"/></svg>