<?xml version="1.0" encoding="utf-8"?>
<!-- Generator: Adobe Illustrator 23.0.3, SVG Export Plug-In . SVG Version: 6.00 Build 0)  -->
<svg version="1.1" id="Layer_1" xmlns="http://www.w3.org/2000/svg" xmlns:xlink="http://www.w3.org/1999/xlink" x="0px" y="0px"
	 viewBox="0 0 209 208" style="enable-background:new 0 0 209 208;" xml:space="preserve">
<style type="text/css">
	.st0{fill:#3A3A3A;}
</style>
<g>
	<g>
		<path class="st0" d="M173.1,33.3C134.6-5.2,72.1-5.2,33.5,33.3C-5,71.9-5,134.4,33.5,173c38.6,38.6,101.1,38.6,139.6,0
			C211.7,134.4,211.7,71.9,173.1,33.3z M42.4,164.1c-33.1-33.1-33.1-86.9,0-120c33.1-33.1,86.9-33.1,120,0
			c33.1,33.1,33.1,86.9,0,120C129.2,197.3,75.5,197.3,42.4,164.1z"/>
		
			<rect x="95.2" y="16.4" transform="matrix(0.7071 -0.7071 0.7071 0.7071 -43.6458 102.7336)" class="st0" width="14" height="175.2"/>
	</g>
</g>
</svg>
