<svg id="Layer_1" data-name="Layer 1" xmlns="http://www.w3.org/2000/svg" viewBox="0 0 31.12 26.6"><defs><style>.cls-1{fill:#cecece;}</style></defs><title>Artboard 101</title><path class="cls-1" d="M15.56,26.5A13.21,13.21,0,1,1,24.9,4l-.33.37L24.89,4A13.2,13.2,0,0,1,15.56,26.5ZM9.38,23.85a12.37,12.37,0,0,0,6.17,1.65A12.05,12.05,0,0,0,22,23.67l-3.95-4a6.42,6.42,0,0,1-2.44.47,6.94,6.94,0,0,1-2.17-.35ZM5.13,6.94A12.21,12.21,0,0,0,5,19.48L9,15.43a6.89,6.89,0,0,1,.1-4.57Zm19.13,2-2.13,2.16a6.32,6.32,0,0,1,.36,2.16,7,7,0,0,1-.3,2l4,4a12.36,12.36,0,0,0-.1-12.21Zm-8.7-1.39a5.77,5.77,0,1,0,5.76,5.78h0A5.77,5.77,0,0,0,15.56,7.52Zm0-1.19a6.87,6.87,0,0,1,2.15.35l3.95-4A12.37,12.37,0,0,0,15.56,1a12.21,12.21,0,0,0-6.1,1.67l4,4a6.47,6.47,0,0,1,2.05-.33Z"/></svg>