<svg id="Layer_1" data-name="Layer 1" xmlns="http://www.w3.org/2000/svg" viewBox="0 0 35 42"><defs><style>.cls-1{fill:#aaa;stroke:#232323;stroke-miterlimit:10;stroke-width:0.5px;}</style></defs><title>surepilot_socialmedia_Artboard 18</title><path class="cls-1" d="M30.8,20.63a1,1,0,0,0-.23-.35l-3.22-3.21a1.07,1.07,0,0,0-1.52,0,1.06,1.06,0,0,0,0,1.51L27.22,20h-6a1.08,1.08,0,1,0,0,2.15h6L25.83,23.5a1.07,1.07,0,0,0,0,1.52,1.09,1.09,0,0,0,.76.32,1.07,1.07,0,0,0,.76-.32l3.22-3.22a.86.86,0,0,0,.23-.35A1.06,1.06,0,0,0,30.8,20.63Z"/><path class="cls-1" d="M23.37,24.26a1.07,1.07,0,0,0-1.07,1.08V30.7H18V13.53a1.06,1.06,0,0,0-.77-1l-3.72-1.12H22.3v5.36a1.08,1.08,0,1,0,2.15,0V10.32a1.08,1.08,0,0,0-1.08-1.08H6.21l-.12,0L6,9.29a1.2,1.2,0,0,0-.31.13s0,0-.08,0,0,0,0,0a1,1,0,0,0-.28.34.32.32,0,0,0,0,.09,1.06,1.06,0,0,0-.09.25s0,.06,0,.09,0,0,0,.07V31.77A1.07,1.07,0,0,0,6,32.83L16.72,35a.78.78,0,0,0,.21,0A1.06,1.06,0,0,0,18,33.92V32.85h5.36a1.08,1.08,0,0,0,1.08-1.08V25.34A1.08,1.08,0,0,0,23.37,24.26Z"/></svg>