<?xml version="1.0" encoding="utf-8"?>
<!-- Generator: Adobe Illustrator 23.0.3, SVG Export Plug-In . SVG Version: 6.00 Build 0)  -->
<svg version="1.1" id="Layer_1" xmlns="http://www.w3.org/2000/svg" xmlns:xlink="http://www.w3.org/1999/xlink" x="0px" y="0px"
	 viewBox="0 0 34 42" style="enable-background:new 0 0 34 42;" xml:space="preserve">
<style type="text/css">
	.st0{fill:#AAAAAA;}
</style>
<g>
	<g>
		<g>
			<polygon class="st0" points="27.5,30.2 22.1,24.8 20.3,26.5 25.8,32 21.5,32 21.5,34.5 30.1,34.5 30.1,26 27.5,26 			"/>
			<polygon class="st0" points="22.1,18.2 27.5,12.7 27.5,17 30.1,17 30.1,8.4 21.5,8.4 21.5,10.9 25.8,10.9 20.3,16.4 			"/>
			<polygon class="st0" points="11.9,24.8 6.5,30.2 6.5,26 3.9,26 3.9,34.5 12.5,34.5 12.5,32 8.2,32 13.7,26.5 			"/>
			<polygon class="st0" points="12.5,10.9 12.5,8.4 3.9,8.4 3.9,17 6.5,17 6.5,12.7 11.9,18.2 13.7,16.4 8.2,10.9 			"/>
		</g>
	</g>
</g>
</svg>
