<svg id="Layer_1" data-name="Layer 1" xmlns="http://www.w3.org/2000/svg" viewBox="0 0 34 42"><defs><style>.cls-1{fill:#333;stroke:#232323;stroke-miterlimit:10;stroke-width:0.5px;}</style></defs><title>surepilot_socialmedia_Artboard 22</title><path class="cls-1" d="M30.22,21.5A13,13,0,1,0,6.05,28.06h0a13,13,0,0,0,5.31,5h0a13,13,0,0,0,17.43-5.65h0A12.93,12.93,0,0,0,30.22,21.5Zm-23,4.63a11.12,11.12,0,0,1-1-4.63A11.24,11.24,0,0,1,7,17.29l3.24,2.34A7.38,7.38,0,0,0,10,21.5a7.16,7.16,0,0,0,.33,2.16L8.11,25.4Zm8.36.44h0a5.38,5.38,0,0,1-3.21-3,5.19,5.19,0,0,1-.43-2.1,5.28,5.28,0,0,1,.35-1.89h0a5.31,5.31,0,0,1,3.09-3.1,5.39,5.39,0,0,1,1.91-.35,5.24,5.24,0,0,1,1.92.36,5.34,5.34,0,0,1,.2,9.89h0a5.37,5.37,0,0,1-2.12.44A5.2,5.2,0,0,1,15.54,26.57Zm11.86-9.5a11.19,11.19,0,0,1,.92,4.43,10.82,10.82,0,0,1-.76,4L24.3,23.17a7.13,7.13,0,0,0,.19-1.67,7.44,7.44,0,0,0-.26-1.94l2.86-2.25ZM17.25,10.43a11,11,0,0,1,4.25.85l-2.35,3.23a7.28,7.28,0,0,0-3.82,0l-2.49-3.18A11.09,11.09,0,0,1,17.25,10.43Zm0,22.15a11,11,0,0,1-4-.74l2.37-3.28a6.85,6.85,0,0,0,1.63.19,7,7,0,0,0,2.18-.34L20.68,30l1.22,1.55A11.1,11.1,0,0,1,17.25,32.58Z"/></svg>